<svg xmlns="http://www.w3.org/2000/svg" viewBox="0 0 512 512" fill="#0f5238">
  <path d="M336 96c-17.7 0-32 14.3-32 32s14.3 32 32 32H448c17.7 0 32-14.3 32-32s-14.3-32-32-32H336zm0 96c-17.7 0-32 14.3-32 32s14.3 32 32 32H448c17.7 0 32-14.3 32-32s-14.3-32-32-32H336zM32 256H144c17.7 0 32-14.3 32-32s-14.3-32-32-32H32C14.3 192 0 206.3 0 224s14.3 32 32 32zm0 96H240c17.7 0 32-14.3 32-32s-14.3-32-32-32H32C14.3 288 0 302.3 0 320s14.3 32 32 32zm448 64c17.7 0 32-14.3 32-32s-14.3-32-32-32H32c-17.7 0-32 14.3-32 32s14.3 32 32 32H480z"/>
</svg>
